<svg xmlns="http://www.w3.org/2000/svg" width="1600" height="900" viewBox="0 0 1600 900"><defs><linearGradient id="g" x1="0" x2="1" y1="0" y2="1"><stop stop-color="#101828"/><stop offset="1" stop-color="#3b1d5a"/></linearGradient><filter id="s"><feDropShadow dx="0" dy="14" stdDeviation="14" flood-opacity=".3"/></filter></defs><rect width="1600" height="900" fill="url(#g)"/><circle cx="1300" cy="120" r="240" fill="#7c3aed" opacity=".18"/><circle cx="260" cy="760" r="300" fill="#06b6d4" opacity=".14"/><g filter="url(#s)"><rect x="160" y="165" width="1280" height="560" rx="28" fill="#111827" stroke="#475569" stroke-width="3"/><rect x="200" y="205" width="1200" height="78" rx="14" fill="#1f2937"/><circle cx="240" cy="244" r="11" fill="#f87171"/><circle cx="276" cy="244" r="11" fill="#fbbf24"/><circle cx="312" cy="244" r="11" fill="#34d399"/><text x="240" y="385" fill="#e5e7eb" font-family="Arial, sans-serif" font-size="66" font-weight="700">CODING PLANS</text><text x="240" y="470" fill="#a5b4fc" font-family="Arial, sans-serif" font-size="42">Buy now, limit tomorrow?</text><text x="240" y="555" fill="#94a3b8" font-family="Arial, sans-serif" font-size="28">A practical market snapshot · 2026-07-20</text><path d="M1080 435h220M1080 500h160M1080 565h200" stroke="#22d3ee" stroke-width="12" stroke-linecap="round"/><path d="M1010 435l-35 35 35 35M1110 500l-35 35 35 35M1035 565l-35 35 35 35" fill="none" stroke="#f472b6" stroke-width="10" stroke-linecap="round" stroke-linejoin="round"/></g></svg>
