<svg xmlns="http://www.w3.org/2000/svg" width="1400" height="720"><rect width="1400" height="720" rx="24" fill="#f1f5f9"/><text x="60" y="85" font-family="Arial" font-size="42" font-weight="700" fill="#0f172a">A safer buying workflow</text><g font-family="Arial" font-size="28"><circle cx="180" cy="350" r="105" fill="#2563eb"/><text x="125" y="342" fill="#fff">Check</text><text x="108" y="382" fill="#fff">official page</text><circle cx="510" cy="350" r="105" fill="#0891b2"/><text x="456" y="342" fill="#fff">Buy</text><text x="425" y="382" fill="#fff">small tier</text><circle cx="840" cy="350" r="105" fill="#16a34a"/><text x="785" y="342" fill="#fff">Measure</text><text x="758" y="382" fill="#fff">one week</text><circle cx="1170" cy="350" r="105" fill="#9333ea"/><text x="1115" y="342" fill="#fff">Scale</text><text x="1086" y="382" fill="#fff">or switch</text><path d="M285 350h120M615 350h120M945 350h120" stroke="#64748b" stroke-width="10"/><path d="M390 330l25 20-25 20M720 330l25 20-25 20M1050 330l25 20-25 20" fill="none" stroke="#64748b" stroke-width="10"/></g></svg>
