<svg xmlns="http://www.w3.org/2000/svg" width="1200" height="680" viewBox="0 0 1200 680">
<rect width="1200" height="680" fill="#ffffff"/>
<rect x="0" y="0" width="1200" height="110" fill="#188038"/>
<text x="70" y="70" font-family="Arial, sans-serif" font-size="42" font-weight="700" fill="#fff">正确处理顺序</text>
<text x="70" y="145" font-family="Arial, sans-serif" font-size="24" fill="#5f6368">先关阀门，再搬走仓库里的箱子</text>
<g font-family="Arial, sans-serif"><rect x="70" y="190" width="235" height="270" rx="18" fill="#e8f0fe" stroke="#d0d7de"/><text x="94" y="248" font-size="28" font-weight="700" fill="#202124">关闭</text><text x="94" y="300" font-size="20" fill="#3c4043">退出 Chrome</text><text x="94" y="334" font-size="20" fill="#3c4043">避免文件占用</text><path d="M315 325 L342 325" stroke="#188038" stroke-width="5" stroke-linecap="round"/><path d="M330 310 L345 325 L330 340" fill="none" stroke="#188038" stroke-width="5" stroke-linecap="round" stroke-linejoin="round"/><rect x="350" y="190" width="235" height="270" rx="18" fill="#fce8e6" stroke="#d0d7de"/><text x="374" y="248" font-size="28" font-weight="700" fill="#202124">写策略</text><text x="374" y="300" font-size="20" fill="#3c4043">设置企业策略</text><text x="374" y="334" font-size="20" fill="#3c4043">值为 Disabled</text><path d="M595 325 L622 325" stroke="#188038" stroke-width="5" stroke-linecap="round"/><path d="M610 310 L625 325 L610 340" fill="none" stroke="#188038" stroke-width="5" stroke-linecap="round" stroke-linejoin="round"/><rect x="630" y="190" width="235" height="270" rx="18" fill="#e6f4ea" stroke="#d0d7de"/><text x="654" y="248" font-size="28" font-weight="700" fill="#202124">清理</text><text x="654" y="300" font-size="20" fill="#3c4043">删除本地模型目录</text><text x="654" y="334" font-size="20" fill="#3c4043">释放磁盘空间</text><path d="M875 325 L902 325" stroke="#188038" stroke-width="5" stroke-linecap="round"/><path d="M890 310 L905 325 L890 340" fill="none" stroke="#188038" stroke-width="5" stroke-linecap="round" stroke-linejoin="round"/><rect x="910" y="190" width="235" height="270" rx="18" fill="#fef7e0" stroke="#d0d7de"/><text x="934" y="248" font-size="28" font-weight="700" fill="#202124">验证</text><text x="934" y="300" font-size="20" fill="#3c4043">打开 chrome://policy</text><text x="934" y="334" font-size="20" fill="#3c4043">确认策略生效</text></g>
</svg>