<svg xmlns="http://www.w3.org/2000/svg" width="1280" height="720" viewBox="0 0 1280 720">
<rect width="1280" height="720" fill="#f8fafc"/>
<rect x="0" y="0" width="1280" height="18" fill="#2563eb"/>
<text x="70" y="82" font-family="Arial, PingFang SC, sans-serif" font-size="42" font-weight="700" fill="#111827">排障地图</text>
<text x="72" y="126" font-family="Arial, PingFang SC, sans-serif" font-size="22" fill="#475569">自启动失败时优先看四条线</text>
<rect x="70" y="170" width="340" height="140" rx="18" fill="#ffffff" stroke="#d1d5db" stroke-width="2"/>
<circle cx="112" cy="212" r="20" fill="#2563eb"/>
<text x="112" y="220" text-anchor="middle" font-family="Arial" font-size="22" font-weight="700" fill="#fff">1</text>
<text x="146" y="214" font-family="Arial, PingFang SC, sans-serif" font-size="24" font-weight="700" fill="#111827">Path</text>
<text x="146" y="248" font-family="Arial, PingFang SC, sans-serif" font-size="19" fill="#475569">二进制/配置不存在</text>
<rect x="460" y="170" width="340" height="140" rx="18" fill="#ffffff" stroke="#d1d5db" stroke-width="2"/>
<circle cx="502" cy="212" r="20" fill="#2563eb"/>
<text x="502" y="220" text-anchor="middle" font-family="Arial" font-size="22" font-weight="700" fill="#fff">2</text>
<text x="536" y="214" font-family="Arial, PingFang SC, sans-serif" font-size="24" font-weight="700" fill="#111827">Privilege</text>
<text x="536" y="248" font-family="Arial, PingFang SC, sans-serif" font-size="19" fill="#475569">权限或账户错误</text>
<rect x="850" y="170" width="340" height="140" rx="18" fill="#ffffff" stroke="#d1d5db" stroke-width="2"/>
<circle cx="892" cy="212" r="20" fill="#2563eb"/>
<text x="892" y="220" text-anchor="middle" font-family="Arial" font-size="22" font-weight="700" fill="#fff">3</text>
<text x="926" y="214" font-family="Arial, PingFang SC, sans-serif" font-size="24" font-weight="700" fill="#111827">Timing</text>
<text x="926" y="248" font-family="Arial, PingFang SC, sans-serif" font-size="19" fill="#475569">网络尚未就绪</text>
<rect x="70" y="380" width="340" height="140" rx="18" fill="#ffffff" stroke="#d1d5db" stroke-width="2"/>
<circle cx="112" cy="422" r="20" fill="#2563eb"/>
<text x="112" y="430" text-anchor="middle" font-family="Arial" font-size="22" font-weight="700" fill="#fff">4</text>
<text x="146" y="424" font-family="Arial, PingFang SC, sans-serif" font-size="24" font-weight="700" fill="#111827">Logs</text>
<text x="146" y="458" font-family="Arial, PingFang SC, sans-serif" font-size="19" fill="#475569">日志指向根因</text>
<rect x="460" y="380" width="340" height="140" rx="18" fill="#ffffff" stroke="#d1d5db" stroke-width="2"/>
<circle cx="502" cy="422" r="20" fill="#2563eb"/>
<text x="502" y="430" text-anchor="middle" font-family="Arial" font-size="22" font-weight="700" fill="#fff">5</text>
<text x="536" y="424" font-family="Arial, PingFang SC, sans-serif" font-size="24" font-weight="700" fill="#111827">Restart</text>
<text x="536" y="458" font-family="Arial, PingFang SC, sans-serif" font-size="19" fill="#475569">反复拉起失败</text>
<rect x="850" y="380" width="340" height="140" rx="18" fill="#ffffff" stroke="#d1d5db" stroke-width="2"/>
<circle cx="892" cy="422" r="20" fill="#2563eb"/>
<text x="892" y="430" text-anchor="middle" font-family="Arial" font-size="22" font-weight="700" fill="#fff">6</text>
<text x="926" y="424" font-family="Arial, PingFang SC, sans-serif" font-size="24" font-weight="700" fill="#111827">Secrets</text>
<text x="926" y="458" font-family="Arial, PingFang SC, sans-serif" font-size="19" fill="#475569">参数泄露风险</text>
</svg>