<svg xmlns="http://www.w3.org/2000/svg" width="1600" height="900" viewBox="0 0 1600 900">
  <defs><linearGradient id="bg" x1="0" x2="1" y1="0" y2="1"><stop stop-color="#101827"/><stop offset="1" stop-color="#173b54"/></linearGradient><filter id="glow"><feGaussianBlur stdDeviation="12" result="b"/><feMerge><feMergeNode in="b"/><feMergeNode in="SourceGraphic"/></feMerge></filter></defs>
  <rect width="1600" height="900" fill="url(#bg)"/>
  <circle cx="1260" cy="210" r="170" fill="#49dcb1" opacity=".14"/><circle cx="1260" cy="210" r="105" fill="none" stroke="#49dcb1" stroke-width="3" opacity=".55"/><circle cx="1260" cy="210" r="35" fill="#49dcb1" filter="url(#glow)"/>
  <path d="M150 600 C360 470 430 520 620 370 S950 140 1260 210" fill="none" stroke="#ffbd69" stroke-width="10" stroke-linecap="round" opacity=".9"/>
  <path d="M150 600 C360 470 430 520 620 370 S950 140 1260 210" fill="none" stroke="#fff1cc" stroke-width="2" stroke-dasharray="14 20"/>
  <g font-family="Arial,Helvetica,sans-serif" fill="#fff"><text x="120" y="170" font-size="76" font-weight="700">AI 怎么学会“用手”的？</text><text x="125" y="255" font-size="38" fill="#a9c7d8">Tool Calling · MCP · From Chat to Action</text><text x="125" y="730" font-size="34" fill="#d8e8ef">不是模型突然变聪明，而是它学会了调用受控工具。</text></g>
  <g transform="translate(1030 500)"><rect width="330" height="190" rx="28" fill="#0c1524" stroke="#49dcb1" stroke-width="4"/><circle cx="80" cy="90" r="30" fill="#49dcb1"/><circle cx="250" cy="90" r="30" fill="#ffbd69"/><path d="M110 90h110" stroke="#fff" stroke-width="8" stroke-linecap="round"/><text x="40" y="155" font-family="Arial" font-size="24" fill="#d8e8ef">model → tool → result</text></g>
</svg>
