<svg xmlns="http://www.w3.org/2000/svg" width="1400" height="760" viewBox="0 0 1400 760" role="img" aria-labelledby="title desc">
  <title id="title">上海电信 2500 万 Token 限时福利</title>
  <desc id="desc">上海电信用户 0 元领取 2500 万 Token，有效期 1 个月。</desc>
  <defs>
    <linearGradient id="bg" x1="0" x2="1" y1="0" y2="1">
      <stop offset="0" stop-color="#e9f7ff"/>
      <stop offset="0.45" stop-color="#bfeaff"/>
      <stop offset="1" stop-color="#f7fbff"/>
    </linearGradient>
    <linearGradient id="blue" x1="0" x2="1">
      <stop offset="0" stop-color="#0052d9"/>
      <stop offset="1" stop-color="#00a3ff"/>
    </linearGradient>
    <filter id="shadow" x="-20%" y="-20%" width="140%" height="140%">
      <feDropShadow dx="0" dy="18" stdDeviation="24" flood-color="#0052d9" flood-opacity="0.18"/>
    </filter>
  </defs>
  <rect width="1400" height="760" fill="url(#bg)"/>
  <path d="M0 610 C220 555 380 640 570 602 C760 562 880 455 1110 500 C1240 526 1320 590 1400 560 L1400 760 L0 760 Z" fill="#ffffff" opacity="0.74"/>
  <path d="M1055 85 h140 a70 70 0 0 1 70 70 v140 a70 70 0 0 1 -70 70 h-140 a70 70 0 0 1 -70 -70 v-140 a70 70 0 0 1 70 -70 Z" fill="#ffffff" opacity="0.66"/>
  <path d="M1086 176 h92 v35 h-56 v82 h-36 Z" fill="#27b4ff" opacity="0.9"/>
  <path d="M1127 176 h51 v35 h-51 Z" fill="#006bdc" opacity="0.9"/>
  <g filter="url(#shadow)">
    <rect x="94" y="96" width="1212" height="568" rx="42" fill="#ffffff" opacity="0.94"/>
    <rect x="126" y="128" width="1148" height="504" rx="30" fill="#fafdff" stroke="#d6ecff" stroke-width="3"/>
  </g>
  <g transform="translate(166 168)">
    <rect x="0" y="0" width="248" height="54" rx="27" fill="#e9f4ff"/>
    <text x="124" y="36" text-anchor="middle" font-family="Arial, 'PingFang SC', 'Microsoft YaHei', sans-serif" font-size="26" font-weight="700" fill="#006bdc">上海电信用户</text>
  </g>
  <text x="166" y="305" font-family="Arial, 'PingFang SC', 'Microsoft YaHei', sans-serif" font-size="78" font-weight="800" fill="#102033">0元领</text>
  <text x="430" y="306" font-family="Arial, 'PingFang SC', 'Microsoft YaHei', sans-serif" font-size="112" font-weight="900" fill="url(#blue)">2500万</text>
  <text x="850" y="305" font-family="Arial, 'PingFang SC', 'Microsoft YaHei', sans-serif" font-size="78" font-weight="800" fill="#102033">Token</text>
  <text x="166" y="405" font-family="Arial, 'PingFang SC', 'Microsoft YaHei', sans-serif" font-size="44" font-weight="700" fill="#31445c">AI STORE 天翼智能推理服务额度版</text>
  <g transform="translate(166 472)">
    <rect x="0" y="0" width="236" height="70" rx="18" fill="#fff2e6" stroke="#ff9b45" stroke-width="2"/>
    <text x="118" y="46" text-anchor="middle" font-family="Arial, 'PingFang SC', 'Microsoft YaHei', sans-serif" font-size="30" font-weight="800" fill="#f06a00">有效期 1 个月</text>
  </g>
  <g transform="translate(430 472)">
    <rect x="0" y="0" width="268" height="70" rx="18" fill="#edf8ff" stroke="#2aa8ff" stroke-width="2"/>
    <text x="134" y="46" text-anchor="middle" font-family="Arial, 'PingFang SC', 'Microsoft YaHei', sans-serif" font-size="30" font-weight="800" fill="#006bdc">手慢可能无</text>
  </g>
  <g transform="translate(730 450)">
    <rect x="0" y="0" width="408" height="114" rx="26" fill="#0b71e8"/>
    <text x="204" y="49" text-anchor="middle" font-family="Arial, 'PingFang SC', 'Microsoft YaHei', sans-serif" font-size="26" font-weight="700" fill="#dff3ff">官方入口领取</text>
    <text x="204" y="86" text-anchor="middle" font-family="Arial, 'PingFang SC', 'Microsoft YaHei', sans-serif" font-size="24" font-weight="700" fill="#ffffff">emall.sh.189.cn</text>
  </g>
  <g transform="translate(1135 506)">
    <circle cx="0" cy="0" r="78" fill="#ffffff" stroke="#2aa8ff" stroke-width="8"/>
    <text x="0" y="-12" text-anchor="middle" font-family="Arial, 'PingFang SC', 'Microsoft YaHei', sans-serif" font-size="30" font-weight="900" fill="#006bdc">AI</text>
    <text x="0" y="29" text-anchor="middle" font-family="Arial, 'PingFang SC', 'Microsoft YaHei', sans-serif" font-size="22" font-weight="800" fill="#334155">TOKEN</text>
  </g>
  <text x="166" y="606" font-family="Arial, 'PingFang SC', 'Microsoft YaHei', sans-serif" font-size="24" font-weight="600" fill="#5d7188">活动以上海电信官方页面实时展示为准</text>
</svg>
