<svg xmlns="http://www.w3.org/2000/svg" viewBox="0 0 750 500" width="750" height="500">
    <rect width="750" height="500" fill="#f8f9fa"/>
    
<text x="375.0" y="30" text-anchor="middle" font-size="18" font-weight="bold" fill="#1f2937" font-family="sans-serif">Debug Comparison: Provider A vs Provider B</text>
<text x="375.0" y="52" text-anchor="middle" font-size="13" fill="#6b7280" font-family="sans-serif">Same prompt, different provider protocol → Different output</text>
<rect x="50" y="80" width="200" height="35" rx="6" fill="#f3f4f6" stroke="#9ca3af" stroke-width="1.5"/><text x="150.0" y="101.16666666666667" text-anchor="middle" font-size="11" fill="#374151" font-family="sans-serif">Same input prompt:</text><rect x="270" y="75" width="230" height="45" rx="6" fill="#e0f2fe" stroke="#0ea5e9" stroke-width="1.5"/><text x="385.0" y="101.16666666666667" text-anchor="middle" font-size="11" fill="#0c4a6e" font-family="monospace">"只回复这两个字：测试"</text><line x1="50" y1="140" x2="700" y2="140" stroke="#d1d5db" stroke-width="1.5" stroke-dasharray="6,4"/><rect x="80" y="170" width="260" height="40" rx="6" fill="#fef2f2" stroke="#ef4444" stroke-width="1.5"/><text x="210.0" y="194.0" text-anchor="middle" font-size="12" fill="#991b1b" font-family="sans-serif">Provider A: compatible-gateway/DIY-123</text><rect x="80" y="220" width="260" height="80" rx="6" fill="#fef2f2" stroke="#fca5a5" stroke-width="1.5"/><text x="210" y="245" font-size="10" fill="#991b1b" font-family="monospace">Output (BUGGY):</text><text x="210" y="268" font-size="12" fill="#dc2626" font-family="monospace">"测试测试"</text><text x="210" y="290" font-size="9" fill="#9ca3af" font-family="monospace">Protocol: openai-completions</text><rect x="400" y="170" width="260" height="90" rx="6" fill="#f0fdf4" stroke="#22c55e" stroke-width="1.5"/><text x="530.0" y="219.0" text-anchor="middle" font-size="12" fill="#166534" font-family="sans-serif">Provider B: &lt;native-provider&gt;/&lt;model&gt;</text><rect x="400" y="270" width="260" height="80" rx="6" fill="#f0fdf4" stroke="#86efac" stroke-width="1.5"/><text x="530" y="295" font-size="10" fill="#166534" font-family="monospace">Output (NORMAL):</text><text x="530" y="318" font-size="14" fill="#16a34a" font-family="monospace">"测试"</text><text x="530" y="340" font-size="9" fill="#9ca3af" font-family="monospace">Protocol: anthropic-messages</text><defs><marker id="arrow_ef4444" viewBox="0 0 10 10" refX="10" refY="5" markerWidth="6" markerHeight="6" orient="auto"><path d="M0,0 L10,5 L0,10 Z" fill="#ef4444"/></marker></defs>
<line x1="350" y1="97" x2="210" y2="170" stroke="#ef4444" stroke-width="1.5" marker-end="url(#arrow_ef4444)"/><defs><marker id="arrow_22c55e" viewBox="0 0 10 10" refX="10" refY="5" markerWidth="6" markerHeight="6" orient="auto"><path d="M0,0 L10,5 L0,10 Z" fill="#22c55e"/></marker></defs>
<line x1="350" y1="97" x2="530" y2="170" stroke="#22c55e" stroke-width="1.5" marker-end="url(#arrow_22c55e)"/><rect x="120" y="390" width="530" height="70" rx="6" fill="#fefce8" stroke="#eab308" stroke-width="1.5"/><text x="385" y="413" font-size="12" fill="#92400e" font-family="sans-serif">Root Cause:</text><text x="385" y="435" font-size="11" fill="#92400e" font-family="monospace">OneAPI v1.0.0-rc.10 finish chunk: delta.content AND message.content BOTH present</text><text x="385" y="453" font-size="11" fill="#166534" font-family="monospace">Solution: Switch OpenClaw provider from openai-completions → anthropic-messages protocol</text>
</svg>