<svg xmlns="http://www.w3.org/2000/svg" viewBox="0 0 800 700" width="800" height="700">
    <rect width="800" height="700" fill="#f8f9fa"/>
    
<text x="400.0" y="30" text-anchor="middle" font-size="18" font-weight="bold" fill="#1f2937" font-family="sans-serif">Request Flow: OneAPI → MiniMax (Bug Scenario)</text>
<text x="400.0" y="52" text-anchor="middle" font-size="13" fill="#6b7280" font-family="sans-serif">OpenClaw → OneAPI (openai-completions) → MiniMax → Duplicate Response</text>
<rect x="50" y="100" width="140" height="50" rx="6" fill="#dbeafe" stroke="#3b82f6" stroke-width="1.5"/><text x="120.0" y="129.33333333333334" text-anchor="middle" font-size="13" fill="#1e3a5f" font-family="sans-serif">User (DingTalk)</text><rect x="250" y="100" width="140" height="50" rx="6" fill="#f3e8ff" stroke="#8b5cf6" stroke-width="1.5"/><text x="320.0" y="129.33333333333334" text-anchor="middle" font-size="13" fill="#4c1d95" font-family="sans-serif">OpenClaw Agent</text><rect x="450" y="100" width="140" height="50" rx="6" fill="#fef3c7" stroke="#f59e0b" stroke-width="1.5"/><text x="520.0" y="129.33333333333334" text-anchor="middle" font-size="13" fill="#92400e" font-family="sans-serif">OneAPI Gateway</text><rect x="630" y="100" width="130" height="50" rx="6" fill="#fce7f3" stroke="#ec4899" stroke-width="1.5"/><text x="695.0" y="129.33333333333334" text-anchor="middle" font-size="13" fill="#831843" font-family="sans-serif">MiniMax API</text><defs><marker id="arrow_3b82f6" viewBox="0 0 10 10" refX="10" refY="5" markerWidth="6" markerHeight="6" orient="auto"><path d="M0,0 L10,5 L0,10 Z" fill="#3b82f6"/></marker></defs>
<line x1="190" y1="125" x2="250" y2="125" stroke="#3b82f6" stroke-width="1.5" marker-end="url(#arrow_3b82f6)"/><defs><marker id="arrow_8b5cf6" viewBox="0 0 10 10" refX="10" refY="5" markerWidth="6" markerHeight="6" orient="auto"><path d="M0,0 L10,5 L0,10 Z" fill="#8b5cf6"/></marker></defs>
<line x1="390" y1="125" x2="450" y2="125" stroke="#8b5cf6" stroke-width="1.5" marker-end="url(#arrow_8b5cf6)"/><defs><marker id="arrow_f59e0b" viewBox="0 0 10 10" refX="10" refY="5" markerWidth="6" markerHeight="6" orient="auto"><path d="M0,0 L10,5 L0,10 Z" fill="#f59e0b"/></marker></defs>
<line x1="590" y1="125" x2="630" y2="125" stroke="#f59e0b" stroke-width="1.5" marker-end="url(#arrow_f59e0b)"/><defs><marker id="arrow_ec4899" viewBox="0 0 10 10" refX="10" refY="5" markerWidth="6" markerHeight="6" orient="auto"><path d="M0,0 L10,5 L0,10 Z" fill="#ec4899"/></marker></defs>
<line x1="630" y1="175" x2="590" y2="175" stroke="#ec4899" stroke-width="1.5" marker-end="url(#arrow_ec4899)"/><defs><marker id="arrow_f59e0b" viewBox="0 0 10 10" refX="10" refY="5" markerWidth="6" markerHeight="6" orient="auto"><path d="M0,0 L10,5 L0,10 Z" fill="#f59e0b"/></marker></defs>
<line x1="450" y1="175" x2="390" y2="175" stroke="#f59e0b" stroke-width="1.5" marker-end="url(#arrow_f59e0b)"/><defs><marker id="arrow_8b5cf6" viewBox="0 0 10 10" refX="10" refY="5" markerWidth="6" markerHeight="6" orient="auto"><path d="M0,0 L10,5 L0,10 Z" fill="#8b5cf6"/></marker></defs>
<line x1="250" y1="175" x2="190" y2="175" stroke="#8b5cf6" stroke-width="1.5" marker-end="url(#arrow_8b5cf6)"/><text x="660" y="170" font-size="11" fill="#ec4899" font-family="monospace">Streaming SSE</text><text x="250" y="170" font-size="11" fill="#dc2626" font-family="monospace">Duplicate Reply!</text><line x1="50" y1="250" x2="750" y2="250" stroke="#d1d5db" stroke-width="1.5" stroke-dasharray="6,4"/><text x="50" y="240" font-size="12" fill="#374151" font-family="sans-serif">Streaming Response Detail:</text><rect x="80" y="280" width="220" height="100" rx="6" fill="#dbeafe" stroke="#3b82f6" stroke-width="1.5"/><text x="190" y="298" font-size="9" fill="#374151" font-family="sans-serif">CHUNK 1 (normal)</text><text x="95" y="320" font-size="9" fill="#3b82f6" font-family="monospace">delta.content:</text><text x="95" y="340" font-size="9" fill="#3b82f6" font-family="monospace">"你好！"</text><rect x="330" y="280" width="220" height="100" rx="6" fill="#fef2f2" stroke="#dc2626" stroke-width="1.5"/><text x="440" y="298" font-size="9" fill="#374151" font-family="sans-serif">CHUNK 2 (FINAL - BUG!)</text><text x="345" y="320" font-size="9" fill="#dc2626" font-family="monospace">delta.content: "你好！"</text><text x="345" y="340" font-size="9" fill="#dc2626" font-family="monospace">message.content: "你好！"</text><text x="345" y="360" font-size="9" fill="#dc2626" font-family="monospace">(BOTH present!)</text><rect x="580" y="280" width="220" height="100" rx="6" fill="#f0fdf4" stroke="#16a34a" stroke-width="1.5"/><text x="690" y="298" font-size="9" fill="#374151" font-family="sans-serif">Result</text><text x="595" y="320" font-size="9" fill="#16a34a" font-family="monospace">Agent sees TWO texts</text><text x="595" y="340" font-size="9" fill="#16a34a" font-family="monospace">both saying "你好！"</text><text x="595" y="360" font-size="9" fill="#16a34a" font-family="monospace">→ Concatenates them</text><defs><marker id="arrow_6b7280" viewBox="0 0 10 10" refX="10" refY="5" markerWidth="6" markerHeight="6" orient="auto"><path d="M0,0 L10,5 L0,10 Z" fill="#6b7280"/></marker></defs>
<line x1="305" y1="330" x2="330" y2="330" stroke="#6b7280" stroke-width="1.5" marker-end="url(#arrow_6b7280)"/><defs><marker id="arrow_dc2626" viewBox="0 0 10 10" refX="10" refY="5" markerWidth="6" markerHeight="6" orient="auto"><path d="M0,0 L10,5 L0,10 Z" fill="#dc2626"/></marker></defs>
<line x1="555" y1="330" x2="580" y2="330" stroke="#dc2626" stroke-width="1.5" marker-end="url(#arrow_dc2626)"/>
</svg>