<svg xmlns="http://www.w3.org/2000/svg" width="1280" height="720" viewBox="0 0 1280 720" role="img" aria-label="OpenClaw duplicate stream patch cover">
  <defs>
    <linearGradient id="bg" x1="0" x2="1" y1="0" y2="1"><stop offset="0" stop-color="#0b1020"/><stop offset="0.55" stop-color="#14213d"/><stop offset="1" stop-color="#0f172a"/></linearGradient>
    <linearGradient id="ok" x1="0" x2="1"><stop offset="0" stop-color="#22c55e"/><stop offset="1" stop-color="#38bdf8"/></linearGradient>
    <filter id="shadow" x="-20%" y="-20%" width="140%" height="140%"><feDropShadow dx="0" dy="20" stdDeviation="18" flood-color="#000" flood-opacity="0.35"/></filter>
  </defs>
  <rect width="1280" height="720" fill="url(#bg)"/>
  <path d="M0 600 C220 520 370 650 590 575 C810 500 930 540 1280 455 L1280 720 L0 720 Z" fill="#0ea5e9" opacity="0.10"/>
  <g opacity="0.18" stroke="#93c5fd" stroke-width="1"><path d="M80 90H1200M80 170H1200M80 250H1200M80 330H1200M80 410H1200M80 490H1200M80 570H1200"/><path d="M160 55V650M320 55V650M480 55V650M640 55V650M800 55V650M960 55V650M1120 55V650"/></g>
  <g filter="url(#shadow)"><rect x="115" y="130" width="575" height="390" rx="22" fill="#111827" stroke="#334155"/><circle cx="150" cy="165" r="8" fill="#ef4444"/><circle cx="178" cy="165" r="8" fill="#f59e0b"/><circle cx="206" cy="165" r="8" fill="#22c55e"/><text x="140" y="225" font-family="ui-monospace, SFMono-Regular, Menlo, monospace" font-size="32" fill="#e5e7eb">thinking...</text><text x="140" y="285" font-family="ui-monospace, SFMono-Regular, Menlo, monospace" font-size="28" fill="#94a3b8" opacity="0.72">answer answer</text><text x="140" y="335" font-family="ui-monospace, SFMono-Regular, Menlo, monospace" font-size="28" fill="#94a3b8" opacity="0.42">answer answer</text><text x="140" y="410" font-family="ui-monospace, SFMono-Regular, Menlo, monospace" font-size="26" fill="#fca5a5">duplicate stream event</text></g>
  <g filter="url(#shadow)"><rect x="760" y="165" width="395" height="310" rx="22" fill="#ecfeff" stroke="#67e8f9"/><rect x="840" y="235" width="235" height="60" rx="12" fill="url(#ok)"/><text x="865" y="274" font-family="ui-monospace, SFMono-Regular, Menlo, monospace" font-size="25" font-weight="700" fill="#082f49">dedupe patch</text><path d="M875 355 L925 405 L1048 292" fill="none" stroke="#16a34a" stroke-width="22" stroke-linecap="round" stroke-linejoin="round"/></g>
  <text x="115" y="610" font-family="Inter, Arial, sans-serif" font-size="48" font-weight="800" fill="#f8fafc">OpenClaw TUI Duplicate Reply Patch</text><text x="118" y="660" font-family="Inter, Arial, sans-serif" font-size="24" fill="#cbd5e1">A practical incident note for OpenAI-compatible streaming adapters</text>
</svg>