<svg xmlns="http://www.w3.org/2000/svg" width="1200" height="680" viewBox="0 0 1200 680">
  <rect width="1200" height="680" fill="#f6f3ec"/>
  <rect x="60" y="50" width="1080" height="580" rx="24" fill="#fffdf8" stroke="#d7c9b5" stroke-width="4"/>
  <text x="90" y="110" font-family="Georgia, serif" font-size="40" fill="#2b2117">OpenClaw 2026.3.23-2 Upgrade Flow</text>
  <text x="90" y="150" font-family="Georgia, serif" font-size="20" fill="#6e5a47">Compatibility-first rollout for a mixed multi-node environment</text>

  <rect x="95" y="210" width="220" height="120" rx="18" fill="#efe2d1" stroke="#b18355" stroke-width="3"/>
  <text x="125" y="258" font-family="Arial, sans-serif" font-size="24" fill="#2b2117">1. Inventory</text>
  <text x="125" y="292" font-family="Arial, sans-serif" font-size="18" fill="#4c3a2b">core version</text>
  <text x="125" y="318" font-family="Arial, sans-serif" font-size="18" fill="#4c3a2b">plugins</text>

  <rect x="355" y="210" width="220" height="120" rx="18" fill="#efe2d1" stroke="#b18355" stroke-width="3"/>
  <text x="390" y="258" font-family="Arial, sans-serif" font-size="24" fill="#2b2117">2. Backup</text>
  <text x="390" y="292" font-family="Arial, sans-serif" font-size="18" fill="#4c3a2b">state dir</text>
  <text x="390" y="318" font-family="Arial, sans-serif" font-size="18" fill="#4c3a2b">app dir + service</text>

  <rect x="615" y="210" width="220" height="120" rx="18" fill="#efe2d1" stroke="#b18355" stroke-width="3"/>
  <text x="645" y="258" font-family="Arial, sans-serif" font-size="24" fill="#2b2117">3. Canary</text>
  <text x="645" y="292" font-family="Arial, sans-serif" font-size="18" fill="#4c3a2b">upgrade core</text>
  <text x="645" y="318" font-family="Arial, sans-serif" font-size="18" fill="#4c3a2b">fix plugin</text>

  <rect x="875" y="210" width="220" height="120" rx="18" fill="#efe2d1" stroke="#b18355" stroke-width="3"/>
  <text x="905" y="258" font-family="Arial, sans-serif" font-size="24" fill="#2b2117">4. Promote</text>
  <text x="905" y="292" font-family="Arial, sans-serif" font-size="18" fill="#4c3a2b">copy validated</text>
  <text x="905" y="318" font-family="Arial, sans-serif" font-size="18" fill="#4c3a2b">artifacts</text>

  <rect x="135" y="420" width="930" height="140" rx="22" fill="#232323"/>
  <text x="175" y="470" font-family="Arial, sans-serif" font-size="28" fill="#f8e2c7">Key Problems Solved</text>
  <text x="175" y="510" font-family="Arial, sans-serif" font-size="22" fill="#ffffff">External plugin SDK breakage</text>
  <text x="520" y="510" font-family="Arial, sans-serif" font-size="22" fill="#ffffff">Stale JIT cache</text>
  <text x="770" y="510" font-family="Arial, sans-serif" font-size="22" fill="#ffffff">Mixed install paths</text>
  <text x="175" y="545" font-family="Arial, sans-serif" font-size="22" fill="#ffffff">Restricted edge-node networking</text>
  <text x="520" y="545" font-family="Arial, sans-serif" font-size="22" fill="#ffffff">Bind-mode probe mismatch</text>

  <path d="M315 270 H355" stroke="#b18355" stroke-width="6" fill="none"/>
  <path d="M575 270 H615" stroke="#b18355" stroke-width="6" fill="none"/>
  <path d="M835 270 H875" stroke="#b18355" stroke-width="6" fill="none"/>
</svg>
