<svg xmlns="http://www.w3.org/2000/svg" width="1600" height="900" viewBox="0 0 1600 900"><defs><linearGradient id="bg" x1="0" y1="0" x2="1" y2="1"><stop stop-color="#07111f"/><stop offset="1" stop-color="#123b5d"/></linearGradient><filter id="shadow"><feDropShadow dx="0" dy="12" stdDeviation="15" flood-opacity=".3"/></filter></defs><rect width="1600" height="900" fill="url(#bg)"/><circle cx="1370" cy="130" r="230" fill="#2dd4bf" opacity=".1"/><circle cx="240" cy="760" r="300" fill="#60a5fa" opacity=".1"/><text x="110" y="120" fill="#fff" font-family="Arial, sans-serif" font-size="54" font-weight="700">Docker 镜像加速：先看路况，再选车道</text><text x="110" y="178" fill="#b9d7ee" font-family="Arial, sans-serif" font-size="25">Generated illustration · 镜像源可用性、配置文件与安全边界</text><g filter="url(#shadow)"><rect x="110" y="270" width="410" height="300" rx="28" fill="#f8fafc"/><rect x="595" y="270" width="410" height="300" rx="28" fill="#f8fafc"/><rect x="1080" y="270" width="410" height="300" rx="28" fill="#f8fafc"/></g><g font-family="Arial, sans-serif" text-anchor="middle"><text x="315" y="350" fill="#0f172a" font-size="32" font-weight="700">1. 监控站</text><text x="315" y="405" fill="#475569" font-size="24">持续检查源是否在线</text><text x="315" y="475" fill="#0f766e" font-size="48">✓ 可用性</text><text x="800" y="350" fill="#0f172a" font-size="32" font-weight="700">2. 配置文件</text><text x="800" y="405" fill="#475569" font-size="24">daemon.json</text><text x="800" y="475" fill="#2563eb" font-size="48">⚙ 路由</text><text x="1285" y="350" fill="#0f172a" font-size="32" font-weight="700">3. Docker 服务</text><text x="1285" y="405" fill="#475569" font-size="24">重启后加载新配置</text><text x="1285" y="475" fill="#ea580c" font-size="48">▶ 拉取镜像</text></g><path d="M520 420 H580 M1005 420 H1065" stroke="#67e8f9" stroke-width="10" stroke-linecap="round"/><path d="M565 395 l25 25 -25 25 M1050 395 l25 25 -25 25" fill="none" stroke="#67e8f9" stroke-width="10" stroke-linecap="round" stroke-linejoin="round"/><rect x="110" y="670" width="1380" height="110" rx="22" fill="#0b1c30" stroke="#2dd4bf" stroke-opacity=".5"/><text x="800" y="735" fill="#d9f99d" font-family="Arial, sans-serif" font-size="30" text-anchor="middle">insecure-registries ≠ 镜像加速：它是“内网 HTTP 白名单”，不是高速公路</text></svg>
