<svg xmlns="http://www.w3.org/2000/svg" width="1200" height="520" viewBox="0 0 1200 520">
  <rect width="1200" height="520" fill="#f8fafc"/>
  <rect x="70" y="70" width="300" height="360" rx="18" fill="#e0f2fe" stroke="#0284c7" stroke-width="3"/>
  <rect x="830" y="70" width="300" height="360" rx="18" fill="#f1f5f9" stroke="#0f172a" stroke-width="3"/>
  <rect x="470" y="105" width="260" height="310" rx="18" fill="#ffffff" stroke="#cbd5e1" stroke-width="3"/>
  <text x="220" y="125" text-anchor="middle" font-family="Arial, sans-serif" font-size="34" font-weight="700" fill="#075985">Source Panel</text>
  <text x="600" y="160" text-anchor="middle" font-family="Arial, sans-serif" font-size="30" font-weight="700" fill="#0f172a">Migration Guard</text>
  <text x="980" y="125" text-anchor="middle" font-family="Arial, sans-serif" font-size="34" font-weight="700" fill="#0f172a">Target Panel</text>
  <g font-family="Arial, sans-serif" font-size="25" fill="#0f172a">
    <text x="115" y="195">1. script files</text>
    <text x="115" y="250">2. environment vars</text>
    <text x="115" y="305">3. cron tasks</text>
    <text x="115" y="360">4. tags and status</text>
    <text x="520" y="230">backup</text>
    <text x="520" y="285">ID remap</text>
    <text x="520" y="340">verify counts</text>
    <text x="875" y="210">/app/data/scripts</text>
    <text x="875" y="270">baihu_envs</text>
    <text x="875" y="330">baihu_tasks</text>
    <text x="875" y="390">relations</text>
  </g>
  <path d="M385 250 H455" stroke="#0ea5e9" stroke-width="8" stroke-linecap="round"/>
  <path d="M745 250 H815" stroke="#0ea5e9" stroke-width="8" stroke-linecap="round"/>
  <path d="M445 230 L475 250 L445 270" fill="none" stroke="#0ea5e9" stroke-width="8" stroke-linecap="round" stroke-linejoin="round"/>
  <path d="M805 230 L835 250 L805 270" fill="none" stroke="#0ea5e9" stroke-width="8" stroke-linecap="round" stroke-linejoin="round"/>
  <circle cx="600" cy="235" r="20" fill="#22c55e"/>
  <path d="M590 235 l7 8 l16 -18" fill="none" stroke="#fff" stroke-width="5" stroke-linecap="round" stroke-linejoin="round"/>
  <circle cx="600" cy="290" r="20" fill="#f59e0b"/>
  <path d="M600 278 v22 M589 289 h22" stroke="#fff" stroke-width="5" stroke-linecap="round"/>
  <circle cx="600" cy="345" r="20" fill="#22c55e"/>
  <path d="M590 345 l7 8 l16 -18" fill="none" stroke="#fff" stroke-width="5" stroke-linecap="round" stroke-linejoin="round"/>
</svg>
