<svg xmlns="http://www.w3.org/2000/svg" width="1200" height="520" viewBox="0 0 1200 520">
  <rect width="1200" height="520" fill="#ffffff"/>
  <text x="600" y="70" text-anchor="middle" font-family="Arial, sans-serif" font-size="38" font-weight="700" fill="#111827">Safe Migration Order</text>
  <g font-family="Arial, sans-serif">
    <g transform="translate(70,150)">
      <rect width="180" height="150" rx="16" fill="#eff6ff" stroke="#2563eb" stroke-width="3"/>
      <text x="90" y="65" text-anchor="middle" font-size="28" font-weight="700" fill="#1e3a8a">1</text>
      <text x="90" y="108" text-anchor="middle" font-size="22" fill="#111827">inventory</text>
    </g>
    <g transform="translate(285,150)">
      <rect width="180" height="150" rx="16" fill="#fef3c7" stroke="#d97706" stroke-width="3"/>
      <text x="90" y="65" text-anchor="middle" font-size="28" font-weight="700" fill="#92400e">2</text>
      <text x="90" y="108" text-anchor="middle" font-size="22" fill="#111827">backup</text>
    </g>
    <g transform="translate(500,150)">
      <rect width="180" height="150" rx="16" fill="#ecfdf5" stroke="#059669" stroke-width="3"/>
      <text x="90" y="65" text-anchor="middle" font-size="28" font-weight="700" fill="#065f46">3</text>
      <text x="90" y="108" text-anchor="middle" font-size="22" fill="#111827">convert</text>
    </g>
    <g transform="translate(715,150)">
      <rect width="180" height="150" rx="16" fill="#f5f3ff" stroke="#7c3aed" stroke-width="3"/>
      <text x="90" y="65" text-anchor="middle" font-size="28" font-weight="700" fill="#5b21b6">4</text>
      <text x="90" y="108" text-anchor="middle" font-size="22" fill="#111827">verify</text>
    </g>
    <g transform="translate(930,150)">
      <rect width="180" height="150" rx="16" fill="#fff1f2" stroke="#e11d48" stroke-width="3"/>
      <text x="90" y="65" text-anchor="middle" font-size="28" font-weight="700" fill="#9f1239">5</text>
      <text x="90" y="108" text-anchor="middle" font-size="22" fill="#111827">cutover</text>
    </g>
  </g>
  <g stroke="#94a3b8" stroke-width="5" stroke-linecap="round">
    <path d="M250 225 h35"/><path d="M465 225 h35"/><path d="M680 225 h35"/><path d="M895 225 h35"/>
  </g>
  <text x="600" y="385" text-anchor="middle" font-family="Arial, sans-serif" font-size="26" fill="#334155">Never migrate secrets without a rollback point. Never cut over without count and UI verification.</text>
</svg>
