<svg xmlns="http://www.w3.org/2000/svg" width="1600" height="900" viewBox="0 0 1600 900">
  <defs>
    <linearGradient id="bg" x1="0" y1="0" x2="1" y2="1">
      <stop offset="0" stop-color="#07111f"/>
      <stop offset="0.58" stop-color="#102a43"/>
      <stop offset="1" stop-color="#26133f"/>
    </linearGradient>
    <linearGradient id="accent" x1="0" y1="0" x2="1" y2="0">
      <stop offset="0" stop-color="#22d3ee"/>
      <stop offset="1" stop-color="#a78bfa"/>
    </linearGradient>
    <filter id="shadow" x="-20%" y="-20%" width="140%" height="140%">
      <feDropShadow dx="0" dy="18" stdDeviation="18" flood-color="#000" flood-opacity="0.35"/>
    </filter>
  </defs>
  <rect width="1600" height="900" fill="url(#bg)"/>
  <circle cx="1420" cy="110" r="260" fill="#7c3aed" opacity="0.18"/>
  <circle cx="80" cy="820" r="320" fill="#0891b2" opacity="0.12"/>
  <path d="M0 720 C360 610 560 790 900 650 S1320 530 1600 620" fill="none" stroke="#334155" stroke-width="2" opacity="0.55"/>
  <g filter="url(#shadow)">
    <rect x="105" y="105" width="1390" height="690" rx="38" fill="#0b1728" stroke="#334155" stroke-width="3"/>
    <rect x="105" y="105" width="1390" height="12" rx="6" fill="url(#accent)"/>
    <text x="175" y="210" fill="#67e8f9" font-family="PingFang SC, Microsoft YaHei, Arial, sans-serif" font-size="30" font-weight="700" letter-spacing="6">2026 · 国内 AI 编程套餐观察</text>
    <text x="175" y="330" fill="#f8fafc" font-family="PingFang SC, Microsoft YaHei, Arial, sans-serif" font-size="76" font-weight="800">国内编程套餐</text>
    <text x="175" y="425" fill="#f8fafc" font-family="PingFang SC, Microsoft YaHei, Arial, sans-serif" font-size="76" font-weight="800">现在还能买吗？</text>
    <text x="180" y="492" fill="#94a3b8" font-family="PingFang SC, Microsoft YaHei, Arial, sans-serif" font-size="28">GLM · Kimi · MiniMax · 千问 AI · 火山方舟</text>
    <g transform="translate(175 590)">
      <rect width="280" height="108" rx="18" fill="#3f1d1d" stroke="#ef4444" stroke-width="2"/>
      <circle cx="34" cy="38" r="10" fill="#f87171"/>
      <text x="60" y="48" fill="#fecaca" font-family="PingFang SC, Microsoft YaHei, Arial, sans-serif" font-size="26" font-weight="700">限量秒杀</text>
      <text x="28" y="84" fill="#fca5a5" font-family="PingFang SC, Microsoft YaHei, Arial, sans-serif" font-size="20">GLM</text>
    </g>
    <g transform="translate(485 590)">
      <rect width="280" height="108" rx="18" fill="#422006" stroke="#f59e0b" stroke-width="2"/>
      <circle cx="34" cy="38" r="10" fill="#fbbf24"/>
      <text x="60" y="48" fill="#fde68a" font-family="PingFang SC, Microsoft YaHei, Arial, sans-serif" font-size="26" font-weight="700">入口关闭</text>
      <text x="28" y="84" fill="#fcd34d" font-family="PingFang SC, Microsoft YaHei, Arial, sans-serif" font-size="20">Kimi</text>
    </g>
    <g transform="translate(795 590)">
      <rect width="280" height="108" rx="18" fill="#052e2b" stroke="#2dd4bf" stroke-width="2"/>
      <circle cx="34" cy="38" r="10" fill="#34d399"/>
      <text x="60" y="48" fill="#a7f3d0" font-family="PingFang SC, Microsoft YaHei, Arial, sans-serif" font-size="26" font-weight="700">当前开放</text>
      <text x="28" y="84" fill="#6ee7b7" font-family="PingFang SC, Microsoft YaHei, Arial, sans-serif" font-size="20">千问 AI</text>
    </g>
    <g transform="translate(1105 590)">
      <rect width="280" height="108" rx="18" fill="#1e1b4b" stroke="#818cf8" stroke-width="2"/>
      <circle cx="34" cy="38" r="10" fill="#a78bfa"/>
      <text x="60" y="48" fill="#ddd6fe" font-family="PingFang SC, Microsoft YaHei, Arial, sans-serif" font-size="26" font-weight="700">仍有机会</text>
      <text x="28" y="84" fill="#c4b5fd" font-family="PingFang SC, Microsoft YaHei, Arial, sans-serif" font-size="20">火山方舟</text>
    </g>
  </g>
</svg>
