<svg xmlns="http://www.w3.org/2000/svg" width="1280" height="720" viewBox="0 0 1280 720">
  <defs><linearGradient id="bg" x1="0" x2="1"><stop offset="0" stop-color="#111827"/><stop offset="1" stop-color="#27313f"/></linearGradient><style>text{font-family:Arial,Helvetica,sans-serif}.title{font-size:42px;font-weight:700;fill:#fff}.sub{font-size:22px;fill:#cbd5e1}.box{fill:#f8fafc;stroke:#e57000;stroke-width:3;rx:8}.h{font-size:24px;font-weight:700;fill:#111827}.p{font-size:18px;fill:#334155}.badge{fill:#e57000}.line{stroke:#e57000;stroke-width:5;stroke-linecap:round;opacity:.8}</style></defs>
  <rect width="1280" height="720" fill="url(#bg)"/>
  <text x="70" y="76" class="title">Proxmox VE 9.2 Release Map</text><text x="70" y="116" class="sub">From platform stack update to cluster operations</text>
  <line x1="190" y1="360" x2="1085" y2="360" class="line"/>
  <g transform="translate(70 190)"><rect class="box" width="230" height="160"/><circle cx="38" cy="38" r="22" class="badge"/><text x="30" y="47" fill="#fff" font-size="24" font-weight="700">1</text><text x="72" y="45" class="h">CRS Balancer</text><text x="28" y="88" class="p">Real-time node</text><text x="28" y="116" class="p">and guest metrics</text></g>
  <g transform="translate(365 190)"><rect class="box" width="230" height="160"/><circle cx="38" cy="38" r="22" class="badge"/><text x="30" y="47" fill="#fff" font-size="24" font-weight="700">2</text><text x="72" y="45" class="h">SDN Fabric</text><text x="28" y="88" class="p">WireGuard, BGP,</text><text x="28" y="116" class="p">EVPN filters</text></g>
  <g transform="translate(660 190)"><rect class="box" width="230" height="160"/><circle cx="38" cy="38" r="22" class="badge"/><text x="30" y="47" fill="#fff" font-size="24" font-weight="700">3</text><text x="72" y="45" class="h">CPU Models</text><text x="28" y="88" class="p">Create and edit</text><text x="28" y="116" class="p">from Web UI</text></g>
  <g transform="translate(955 190)"><rect class="box" width="230" height="160"/><circle cx="38" cy="38" r="22" class="badge"/><text x="30" y="47" fill="#fff" font-size="24" font-weight="700">4</text><text x="72" y="45" class="h">HA Control</text><text x="28" y="88" class="p">Arm/disarm for</text><text x="28" y="116" class="p">maintenance</text></g>
  <g transform="translate(155 450)"><rect class="box" width="970" height="120"/><text x="36" y="48" class="h">Base Stack</text><text x="36" y="84" class="p">Debian 13.5 Trixie · Kernel 7.0 · QEMU 11.0 · LXC 7.0 · ZFS 2.4 · Ceph Squid 19.2.3 / Tentacle 20.2.1</text></g>
</svg>