<svg xmlns="http://www.w3.org/2000/svg" width="1280" height="720" viewBox="0 0 1280 720">
 <defs><style>text{font-family:Arial,Helvetica,sans-serif}.t{font-size:40px;font-weight:700;fill:#fff}.s{font-size:21px;fill:#cbd5e1}.card{fill:#fff;rx:8}.h{font-size:24px;font-weight:700;fill:#111827}.p{font-size:18px;fill:#334155}.check{fill:#16a34a}.warn{fill:#f97316}</style></defs><rect width="1280" height="720" fill="#111827"/>
 <text x="60" y="70" class="t">Before You Upgrade to Proxmox VE 9.2</text><text x="60" y="110" class="s">A practical operator checklist for homelab and small clusters</text>
 <g transform="translate(70 165)"><rect class="card" width="350" height="190"/><circle cx="42" cy="48" r="18" class="check"/><text x="35" y="56" fill="#fff" font-size="22">✓</text><text x="75" y="55" class="h">Backups</text><text x="34" y="98" class="p">Restorable VM/CT backups</text><text x="34" y="128" class="p">External storage confirmed</text><text x="34" y="158" class="p">Rollback route documented</text></g>
 <g transform="translate(465 165)"><rect class="card" width="350" height="190"/><circle cx="42" cy="48" r="18" class="check"/><text x="35" y="56" fill="#fff" font-size="22">✓</text><text x="75" y="55" class="h">Compatibility</text><text x="34" y="98" class="p">Kernel, drivers, passthrough</text><text x="34" y="128" class="p">Ceph release and storage</text><text x="34" y="158" class="p">Custom roles and APIs</text></g>
 <g transform="translate(860 165)"><rect class="card" width="350" height="190"/><circle cx="42" cy="48" r="18" class="warn"/><text x="35" y="56" fill="#fff" font-size="22">!</text><text x="75" y="55" class="h">HA Window</text><text x="34" y="98" class="p">Avoid active migrations</text><text x="34" y="128" class="p">Understand arm/disarm</text><text x="34" y="158" class="p">Keep console access ready</text></g>
 <g transform="translate(70 410)"><rect class="card" width="350" height="190"/><circle cx="42" cy="48" r="18" class="check"/><text x="35" y="56" fill="#fff" font-size="22">✓</text><text x="75" y="55" class="h">Repositories</text><text x="34" y="98" class="p">Use official 9.2 guidance</text><text x="34" y="128" class="p">No mixed old sources</text><text x="34" y="158" class="p">Review package removals</text></g>
 <g transform="translate(465 410)"><rect class="card" width="350" height="190"/><circle cx="42" cy="48" r="18" class="check"/><text x="35" y="56" fill="#fff" font-size="22">✓</text><text x="75" y="55" class="h">Post-checks</text><text x="34" y="98" class="p">Services and journal</text><text x="34" y="128" class="p">Storage and networking</text><text x="34" y="158" class="p">Guests and web console</text></g>
 <g transform="translate(860 410)"><rect class="card" width="350" height="190"/><circle cx="42" cy="48" r="18" class="warn"/><text x="35" y="56" fill="#fff" font-size="22">!</text><text x="75" y="55" class="h">Do Not Leak</text><text x="34" y="98" class="p">Redact addresses and tokens</text><text x="34" y="128" class="p">Use placeholders in notes</text><text x="34" y="158" class="p">Keep logs private</text></g>
</svg>