<svg xmlns="http://www.w3.org/2000/svg" viewBox="0 0 1100 720" font-family="-apple-system, 'Segoe UI', 'PingFang SC', 'Microsoft YaHei', sans-serif">
  <defs>
    <linearGradient id="bg" x1="0" y1="0" x2="1" y2="1">
      <stop offset="0" stop-color="#0f172a"/>
      <stop offset="1" stop-color="#1e293b"/>
    </linearGradient>
    <linearGradient id="ok" x1="0" y1="0" x2="0" y2="1">
      <stop offset="0" stop-color="#22c55e"/>
      <stop offset="1" stop-color="#16a34a"/>
    </linearGradient>
    <linearGradient id="warn" x1="0" y1="0" x2="0" y2="1">
      <stop offset="0" stop-color="#f59e0b"/>
      <stop offset="1" stop-color="#d97706"/>
    </linearGradient>
    <linearGradient id="bad" x1="0" y1="0" x2="0" y2="1">
      <stop offset="0" stop-color="#ef4444"/>
      <stop offset="1" stop-color="#b91c1c"/>
    </linearGradient>
    <linearGradient id="link" x1="0" y1="0" x2="0" y2="1">
      <stop offset="0" stop-color="#3b82f6"/>
      <stop offset="1" stop-color="#2563eb"/>
    </linearGradient>
    <linearGradient id="title" x1="0" y1="0" x2="0" y2="1">
      <stop offset="0" stop-color="#a5b4fc"/>
      <stop offset="1" stop-color="#60a5fa"/>
    </linearGradient>
    <filter id="soft" x="-20%" y="-20%" width="140%" height="140%">
      <feGaussianBlur stdDeviation="2" result="b"/>
      <feOffset in="b" dx="0" dy="2" result="o"/>
      <feComponentTransfer in="o" result="t"><feFuncA type="linear" slope="0.3"/></feComponentTransfer>
      <feMerge><feMergeNode in="t"/><feMergeNode in="SourceGraphic"/></feMerge>
    </filter>
    <marker id="arrow" viewBox="0 0 10 10" refX="9" refY="5" markerWidth="7" markerHeight="7" orient="auto">
      <path d="M0,0 L10,5 L0,10 z" fill="#cbd5e1"/>
    </marker>
  </defs>

  <rect width="1100" height="720" fill="url(#bg)"/>

  <text x="550" y="46" text-anchor="middle" fill="url(#title)" font-size="26" font-weight="700">
    NAS 硬盘健康判断与售后换新完整路径
  </text>
  <text x="550" y="72" text-anchor="middle" fill="#94a3b8" font-size="14">
    SMART 体检 → 故障定位 → 售后转保 → 换新落地
  </text>

  <g transform="translate(40,110)">
    <rect width="240" height="180" rx="14" fill="#1e293b" stroke="#334155" stroke-width="1.5" filter="url(#soft)"/>
    <text x="20" y="32" fill="#a5b4fc" font-size="14" font-weight="700">① SMART 体检</text>
    <text x="20" y="56" fill="#cbd5e1" font-size="12">smartctl -a /dev/sdX</text>
    <g transform="translate(20,70)" font-size="11">
      <rect width="200" height="22" rx="4" fill="#0f172a" stroke="#475569"/>
      <text x="10" y="15" fill="#fbbf24">ID  5 Reallocated_Sector_Ct</text>
      <rect y="28" width="200" height="22" rx="4" fill="#0f172a" stroke="#475569"/>
      <text x="10" y="43" fill="#fbbf24">ID  9 Power_On_Hours</text>
      <rect y="56" width="200" height="22" rx="4" fill="#0f172a" stroke="#475569"/>
      <text x="10" y="71" fill="#fbbf24">ID 187 Reported_Uncorrect</text>
      <rect y="84" width="200" height="22" rx="4" fill="#0f172a" stroke="#475569"/>
      <text x="10" y="99" fill="#fbbf24">ID 198 Offline_Uncorrectable</text>
    </g>
  </g>

  <line x1="285" y1="200" x2="335" y2="200" stroke="#cbd5e1" stroke-width="2" marker-end="url(#arrow)"/>

  <g transform="translate(340,110)">
    <rect width="320" height="180" rx="14" fill="#1e293b" stroke="#334155" stroke-width="1.5" filter="url(#soft)"/>
    <text x="20" y="32" fill="#a5b4fc" font-size="14" font-weight="700">② 故障分类定位</text>

    <g transform="translate(20,48)">
      <rect width="280" height="34" rx="6" fill="url(#bad)" opacity="0.85"/>
      <text x="14" y="22" fill="#fff" font-size="12" font-weight="600">Pending &gt; 0 或 Realloc 飙升</text>
    </g>

    <g transform="translate(20,90)">
      <rect width="280" height="34" rx="6" fill="url(#warn)" opacity="0.85"/>
      <text x="14" y="22" fill="#fff" font-size="12" font-weight="600">Realloc 高但 Pending=0</text>
    </g>

    <g transform="translate(20,132)">
      <rect width="280" height="34" rx="6" fill="url(#link)" opacity="0.85"/>
      <text x="14" y="22" fill="#fff" font-size="12" font-weight="600">CRC / Timeout 上涨</text>
    </g>
  </g>

  <line x1="665" y1="200" x2="715" y2="200" stroke="#cbd5e1" stroke-width="2" marker-end="url(#arrow)"/>

  <g transform="translate(720,110)">
    <rect width="340" height="180" rx="14" fill="#1e293b" stroke="#334155" stroke-width="1.5" filter="url(#soft)"/>
    <text x="20" y="32" fill="#a5b4fc" font-size="14" font-weight="700">③ 售后路径选择</text>

    <g transform="translate(20,50)">
      <rect width="300" height="32" rx="6" fill="url(#ok)" opacity="0.9"/>
      <text x="14" y="20" fill="#fff" font-size="12" font-weight="600">国行 (大陆保修) → 本地 RMA</text>
    </g>
    <g transform="translate(20,90)">
      <rect width="300" height="32" rx="6" fill="url(#warn)" opacity="0.9"/>
      <text x="14" y="20" fill="#fff" font-size="12" font-weight="600">台/港/外版 → 寄回原区 或 转保</text>
    </g>
    <g transform="translate(20,130)">
      <rect width="300" height="32" rx="6" fill="url(#bad)" opacity="0.9"/>
      <text x="14" y="20" fill="#fff" font-size="12" font-weight="600">OEM / 店保 / 套保盘 → 找原商家</text>
    </g>
  </g>

  <g transform="translate(40,340)">
    <rect width="500" height="320" rx="14" fill="#1e293b" stroke="#334155" stroke-width="1.5" filter="url(#soft)"/>
    <text x="20" y="32" fill="#a5b4fc" font-size="14" font-weight="700">④ 提交 RMA / 转保申请</text>

    <g transform="translate(20,50)" font-size="12">
      <rect width="460" height="32" rx="6" fill="#0f172a" stroke="#475569"/>
      <text x="14" y="20" fill="#cbd5e1">① 网页工单 / 邮件 / 400-887-8755</text>
    </g>
    <g transform="translate(20,90)" font-size="12">
      <rect width="460" height="32" rx="6" fill="#0f172a" stroke="#475569"/>
      <text x="14" y="20" fill="#cbd5e1">② 提交:SN + 故障 SMART + 铭牌照</text>
    </g>
    <g transform="translate(20,130)" font-size="12">
      <rect width="460" height="32" rx="6" fill="#0f172a" stroke="#475569"/>
      <text x="14" y="20" fill="#cbd5e1">③ 签发 RMA → 顺丰寄回 (希捷承担运费)</text>
    </g>
    <g transform="translate(20,170)" font-size="12">
      <rect width="460" height="32" rx="6" fill="#0f172a" stroke="#475569"/>
      <text x="14" y="20" fill="#cbd5e1">④ 7-15 个工作日寄回新盘或等规格盘</text>
    </g>
    <g transform="translate(20,210)">
      <rect width="460" height="60" rx="6" fill="url(#bad)" opacity="0.3" stroke="#ef4444" stroke-dasharray="5 4"/>
      <text x="14" y="22" fill="#fecaca" font-size="12" font-weight="700">⚠ 寄出前必须完成:</text>
      <text x="14" y="42" fill="#fecaca" font-size="11">• 完整备份数据 (RMA 寄回后清零)</text>
      <text x="14" y="56" fill="#fecaca" font-size="11">• 防静电袋 + 5cm 减震包装</text>
    </g>
  </g>

  <g transform="translate(560,340)">
    <rect width="500" height="320" rx="14" fill="#1e293b" stroke="#334155" stroke-width="1.5" filter="url(#soft)"/>
    <text x="20" y="32" fill="#a5b4fc" font-size="14" font-weight="700">⑤ 新盘到货 / 重新上线</text>

    <g transform="translate(20,50)" font-size="12">
      <rect width="460" height="32" rx="6" fill="#0f172a" stroke="#475569"/>
      <text x="14" y="20" fill="#cbd5e1">① smartctl -A 核对 SMART 全为 0</text>
    </g>
    <g transform="translate(20,90)" font-size="12">
      <rect width="460" height="32" rx="6" fill="#0f172a" stroke="#475569"/>
      <text x="14" y="20" fill="#cbd5e1">② badblocks 长测 / S.M.A.R.T. 短测</text>
    </g>
    <g transform="translate(20,130)" font-size="12">
      <rect width="460" height="32" rx="6" fill="#0f172a" stroke="#475569"/>
      <text x="14" y="20" fill="#cbd5e1">③ 写入测试数据 → 回拷真实数据</text>
    </g>
    <g transform="translate(20,170)" font-size="12">
      <rect width="460" height="32" rx="6" fill="#0f172a" stroke="#475569"/>
      <text x="14" y="20" fill="#cbd5e1">④ Storage Manager 重建 RAID / 单盘</text>
    </g>
    <g transform="translate(20,210)">
      <rect width="460" height="60" rx="6" fill="url(#ok)" opacity="0.25" stroke="#22c55e" stroke-dasharray="5 4"/>
      <text x="14" y="22" fill="#bbf7d0" font-size="12" font-weight="700">✅ 长期防护:</text>
      <text x="14" y="42" fill="#bbf7d0" font-size="11">• 每月 1 次 SMART 自检 + 健康度告警</text>
      <text x="14" y="56" fill="#bbf7d0" font-size="11">• 3-2-1 备份策略 (本地 / 异机 / 云)</text>
    </g>
  </g>

  <g transform="translate(40,680)">
    <line x1="0" y1="6" x2="1020" y2="6" stroke="#475569" stroke-width="2" stroke-dasharray="4 4"/>
    <text x="510" y="30" text-anchor="middle" fill="#64748b" font-size="12">
      发现告警 → 5 分钟定位 → 24 小时完成 RMA 工单 → 7-15 天拿到新盘
    </text>
  </g>
</svg>
